Coordinates
version=1
nRows=10
nColumns=22
inDegrees=yes

Units are S.I. units (second, meters, Newtons, ...)
If the header above contains a line with 'inDegrees', this indicates whether rotational values are in degrees (yes) or radians (no).

endheader
time	pelvis_tilt	pelvis_list	pelvis_rotation	pelvis_tx	pelvis_ty	pelvis_tz	hip_flexion_r	hip_adduction_r	hip_rotation_r	knee_angle_r	ankle_angle_r	subtalar_angle_r	hip_flexion_l	hip_adduction_l	hip_rotation_l	knee_angle_l	ankle_angle_l	subtalar_angle_l	lumbar_extension	lumbar_bending	lumbar_rotation
      0.01000000	      2.99820424	      3.85787514	    176.70843311	      0.08982475	      0.95148431	      1.11867070	      8.90027169	      3.49886502	     -1.32819076	    -18.89902859	     12.30666904	     -1.96339296	      8.92943306	     -6.89704252	     -7.34463661	    -23.03609846	     14.75739934	     -3.31637235	     -2.75696125	      2.40835711	     -0.15448049
      0.02000000	      3.01085395	      3.85265997	    176.70424088	      0.08966244	      0.95144185	      1.11845166	      8.89567865	      3.50669983	     -1.32537994	    -18.88797074	     12.32020118	     -1.97064174	      8.92079385	     -6.90707067	     -7.35956622	    -23.01754155	     14.75633810	     -3.32469442	     -2.74171346	      2.40807681	     -0.19988132
      0.03000000	      3.02628682	      3.84678709	    176.70469033	      0.08946779	      0.95139365	      1.11820009	      8.88469136	      3.51562440	     -1.32472647	    -18.86520646	     12.34049523	     -1.97767559	      8.91414176	     -6.91930436	     -7.37454525	    -22.99953342	     14.75786833	     -3.33054835	     -2.72118224	      2.40674473	     -0.25187901
      0.04000000	      3.04109201	      3.84590520	    176.72184060	      0.08924453	      0.95133959	      1.11794611	      8.85655551	      3.53017674	     -1.33427990	    -18.81875576	     12.37602862	     -1.99604919	      8.91398961	     -6.93664205	     -7.36926681	    -22.99284775	     14.76340296	     -3.34017288	     -2.69892704	      2.41213904	     -0.31997706
      0.05000000	      3.05812049	      3.84384062	    176.73822690	      0.08899503	      0.95128742	      1.11768304	      8.82812806	      3.54399015	     -1.34596560	    -18.77068653	     12.39893416	     -2.00984343	      8.90761773	     -6.95258870	     -7.36804747	    -22.97360769	     14.77338101	     -3.34345366	     -2.67024011	      2.41786659	     -0.38977099
      0.06000000	      3.07414586	      3.84291814	    176.75941370	      0.08872927	      0.95123790	      1.11742244	      8.79196751	      3.55931446	     -1.35850108	    -18.71364754	     12.42347133	     -2.02331336	      8.90047787	     -6.96932579	     -7.36077229	    -22.95548398	     14.78483162	     -3.34326529	     -2.63837652	      2.42632832	     -0.46006560
      0.07000000	      3.08942947	      3.84293918	    176.78108342	      0.08845290	      0.95119331	      1.11716837	      8.75106120	      3.57498005	     -1.37307112	    -18.65059287	     12.44488930	     -2.03720442	      8.89215288	     -6.98619311	     -7.34917250	    -22.93834656	     14.79693404	     -3.34074119	     -2.60538845	      2.43534628	     -0.52609074
      0.08000000	      3.10283080	      3.84395895	    176.80364100	      0.08817052	      0.95115483	      1.11692834	      8.70533171	      3.59121320	     -1.38794793	    -18.58325778	     12.46331731	     -2.05307540	      8.88241282	     -7.00266934	     -7.33514830	    -22.92269901	     14.80901154	     -3.33622481	     -2.57050406	      2.44639899	     -0.58533194
      0.09000000	      3.11685751	      3.84404253	    176.82216532	      0.08789353	      0.95111870	      1.11669145	      8.65998370	      3.60673055	     -1.39946500	    -18.51459754	     12.47969990	     -2.06854285	      8.87246384	     -7.01838693	     -7.32737910	    -22.90576885	     14.81989607	     -3.33134907	     -2.53221260	      2.45474804	     -0.63146750
      0.10000000	      3.13510673	      3.83827063	    176.82778274	      0.08761540	      0.95107938	      1.11646945	      8.62601774	      3.61405657	     -1.41156191	    -18.45614277	     12.49487780	     -2.07520332	      8.86328738	     -7.02735064	     -7.33460103	    -22.88645876	     14.82691671	     -3.32975392	     -2.48497669	      2.45861511	     -0.64975958
